<svg width="101" height="99" viewBox="0 0 101 99" fill="none" xmlns="http://www.w3.org/2000/svg">
<path fill-rule="evenodd" clip-rule="evenodd" d="M50.5329 0.49176C22.7781 0.49176 0.279514 22.9903 0.279514 50.7452C0.279514 72.9358 14.6848 91.7836 34.6322 98.4254C37.1393 98.8873 38.063 97.3258 38.063 96.0062C38.063 94.8186 38.019 90.8599 37.9971 86.6593C24.0097 89.6943 21.0626 80.7213 21.0626 80.7213C18.7754 74.9152 15.4765 73.3757 15.4765 73.3757C10.924 70.2527 15.8284 70.3187 15.8284 70.3187C20.8647 70.6706 23.5258 75.487 23.5258 75.487C28.0124 83.1625 35.27 80.9412 38.151 79.6656C38.6129 76.4107 39.9104 74.2114 41.34 72.9358C30.1896 71.6603 18.4455 67.3497 18.4455 48.106C18.4455 42.6298 20.4029 38.1433 23.6138 34.6245C23.086 33.3489 21.3705 28.2466 24.0976 21.3189C24.0976 21.3189 28.3203 19.9773 37.9091 26.4652C41.9118 25.3436 46.2223 24.7937 50.4889 24.7717C54.7555 24.7937 59.0661 25.3436 63.0688 26.4652C72.6576 19.9553 76.8802 21.3189 76.8802 21.3189C79.6073 28.2466 77.8919 33.3489 77.3641 34.6245C80.575 38.1433 82.5323 42.6298 82.5323 48.106C82.5323 67.4157 70.7882 71.6602 59.5939 72.8918C61.3973 74.4533 63.0028 77.5103 63.0028 82.1948C63.0028 88.9246 62.9368 94.3348 62.9368 95.9842C62.9368 97.3258 63.8385 98.8873 66.3897 98.4034C86.3371 91.7616 100.72 72.9138 100.72 50.7232C100.786 22.9903 78.2877 0.49176 50.5329 0.49176Z" fill="#CD73C4"/>
<path d="M19.3252 72.6279C19.2153 72.8699 18.8194 72.9578 18.4675 72.7819C18.0936 72.6279 17.8957 72.276 18.0057 72.0341C18.1156 71.7702 18.5115 71.7042 18.8634 71.8802C19.2373 72.0341 19.4352 72.386 19.3252 72.6279Z" fill="#CD73C4"/>
<path d="M21.3486 74.8932C21.1066 75.1131 20.6448 75.0032 20.3149 74.6513C19.985 74.2994 19.919 73.8375 20.161 73.6176C20.4029 73.3977 20.8647 73.5076 21.1946 73.8595C21.5465 74.2114 21.6125 74.6733 21.3486 74.8932Z" fill="#CD73C4"/>
<path d="M23.3279 77.7962C23.02 78.0161 22.5142 77.8182 22.2063 77.3564C21.8984 76.9165 21.8984 76.3667 22.2063 76.1687C22.5142 75.9488 23.02 76.1468 23.3279 76.5866C23.6578 77.0265 23.6578 77.5763 23.3279 77.7962Z" fill="#CD73C4"/>
<path d="M26.055 80.5893C25.7691 80.8972 25.1973 80.8093 24.7574 80.3914C24.3176 79.9955 24.1856 79.4017 24.4715 79.1158C24.7574 78.8079 25.3512 78.8959 25.7691 79.3138C26.2089 79.7096 26.3409 80.2814 26.055 80.5893Z" fill="#CD73C4"/>
<path d="M29.7938 82.2167C29.6618 82.6126 29.112 82.7885 28.5402 82.6126C27.9684 82.4367 27.5945 81.9748 27.7044 81.5789C27.8144 81.1831 28.3862 81.0071 28.958 81.1831C29.5298 81.359 29.9037 81.8209 29.7938 82.2167Z" fill="#CD73C4"/>
<path d="M33.9064 82.5027C33.9284 82.9205 33.4446 83.2504 32.8508 83.2724C32.257 83.2944 31.7731 82.9425 31.7511 82.5467C31.7511 82.1288 32.213 81.7989 32.8288 81.7769C33.4226 81.7769 33.9064 82.1068 33.9064 82.5027Z" fill="#CD73C4"/>
<path d="M37.7331 81.8649C37.7991 82.2607 37.3813 82.6786 36.7875 82.7886C36.1937 82.8985 35.6658 82.6566 35.5999 82.2387C35.5339 81.8209 35.9517 81.403 36.5235 81.2931C37.1173 81.2051 37.6452 81.447 37.7331 81.8649Z" fill="#CD73C4"/>
</svg>
