<svg width="102" height="99" viewBox="0 0 102 99" fill="none" xmlns="http://www.w3.org/2000/svg">
<path fill-rule="evenodd" clip-rule="evenodd" d="M51.0332 0.49176C23.019 0.49176 0.310165 22.9903 0.310165 50.7452C0.310165 72.9358 14.85 91.7836 34.9839 98.4254C37.5145 98.8873 38.4468 97.3258 38.4468 96.0062C38.4468 94.8186 38.4024 90.8599 38.3802 86.6593C24.2621 89.6943 21.2875 80.7213 21.2875 80.7213C18.9789 74.9152 15.6492 73.3757 15.6492 73.3757C11.0541 70.2527 16.0043 70.3187 16.0043 70.3187C21.0878 70.6706 23.7737 75.487 23.7737 75.487C28.3022 83.1625 35.6276 80.9412 38.5356 79.6656C39.0018 76.4107 40.3115 74.2114 41.7543 72.9358C30.4998 71.6603 18.6459 67.3497 18.6459 48.106C18.6459 42.6298 20.6216 38.1433 23.8625 34.6245C23.3298 33.3489 21.5983 28.2466 24.3509 21.3189C24.3509 21.3189 28.613 19.9773 38.2914 26.4652C42.3315 25.3436 46.6824 24.7937 50.9888 24.7717C55.2953 24.7937 59.6462 25.3436 63.6862 26.4652C73.3647 19.9553 77.6268 21.3189 77.6268 21.3189C80.3793 28.2466 78.6479 33.3489 78.1151 34.6245C81.3561 38.1433 83.3317 42.6298 83.3317 48.106C83.3317 67.4157 71.4778 71.6602 60.1789 72.8918C61.9992 74.4533 63.6197 77.5103 63.6197 82.1948C63.6197 88.9246 63.5531 94.3348 63.5531 95.9842C63.5531 97.3258 64.4632 98.8873 67.0382 98.4034C87.172 91.7616 101.69 72.9138 101.69 50.7232C101.756 22.9903 79.0475 0.49176 51.0332 0.49176Z" fill="#795EC7"/>
<path d="M19.5339 72.6279C19.4229 72.8699 19.0233 72.9578 18.6681 72.7819C18.2908 72.6279 18.091 72.276 18.202 72.0341C18.313 71.7702 18.7125 71.7042 19.0677 71.8802C19.4451 72.0341 19.6449 72.386 19.5339 72.6279Z" fill="#795EC7"/>
<path d="M21.5761 74.8932C21.3319 75.1131 20.8658 75.0032 20.5328 74.6513C20.1998 74.2994 20.1332 73.8375 20.3774 73.6176C20.6216 73.3977 21.0878 73.5076 21.4207 73.8595C21.7759 74.2114 21.8425 74.6733 21.5761 74.8932Z" fill="#795EC7"/>
<path d="M23.574 77.7962C23.2632 78.0161 22.7526 77.8182 22.4418 77.3564C22.1311 76.9165 22.1311 76.3667 22.4418 76.1687C22.7526 75.9488 23.2632 76.1468 23.574 76.5866C23.9069 77.0265 23.9069 77.5763 23.574 77.7962Z" fill="#795EC7"/>
<path d="M26.3265 80.5893C26.038 80.8972 25.4608 80.8093 25.0168 80.3914C24.5729 79.9955 24.4397 79.4017 24.7283 79.1158C25.0168 78.8079 25.6162 78.8959 26.038 79.3138C26.4819 79.7096 26.6151 80.2814 26.3265 80.5893Z" fill="#795EC7"/>
<path d="M30.1002 82.2167C29.967 82.6126 29.4121 82.7885 28.8349 82.6126C28.2578 82.4367 27.8804 81.9748 27.9914 81.5789C28.1024 81.1831 28.6795 81.0071 29.2567 81.1831C29.8339 81.359 30.2112 81.8209 30.1002 82.2167Z" fill="#795EC7"/>
<path d="M34.2513 82.5027C34.2735 82.9205 33.7852 83.2504 33.1858 83.2724C32.5865 83.2944 32.0981 82.9425 32.0759 82.5467C32.0759 82.1288 32.5421 81.7989 33.1636 81.7769C33.763 81.7769 34.2513 82.1068 34.2513 82.5027Z" fill="#795EC7"/>
<path d="M38.1138 81.8649C38.1804 82.2607 37.7587 82.6786 37.1593 82.7886C36.5599 82.8985 36.0272 82.6566 35.9606 82.2387C35.894 81.8209 36.3158 81.403 36.8929 81.2931C37.4923 81.2051 38.025 81.447 38.1138 81.8649Z" fill="#795EC7"/>
</svg>
